SplineFontDB: 3.0
FontName: Catastrophe
FullName: Catastrophe
FamilyName: Catastrophe
Weight: Regular
Copyright: Copyright (c) 2016, kelvin,,,
UComments: "2016-3-31: Created with FontForge (http://fontforge.org)"
Version: 001.000
ItalicAngle: -10
UnderlinePosition: -100
UnderlineWidth: 50
Ascent: 790
Descent: 210
InvalidEm: 0
LayerCount: 2
Layer: 0 0 "Back" 1
Layer: 1 0 "Fore" 0
PreferredKerning: 4
XUID: [1021 629 -1283197947 14224290]
StyleMap: 0x0000
FSType: 0
OS2Version: 0
OS2_WeightWidthSlopeOnly: 0
OS2_UseTypoMetrics: 1
CreationTime: 1459445766
ModificationTime: 1461606337
PfmFamily: 17
TTFWeight: 400
TTFWidth: 5
LineGap: 90
VLineGap: 0
OS2TypoAscent: 0
OS2TypoAOffset: 1
OS2TypoDescent: 0
OS2TypoDOffset: 1
OS2TypoLinegap: 90
OS2WinAscent: 0
OS2WinAOffset: 1
OS2WinDescent: 0
OS2WinDOffset: 1
HheadAscent: 0
HheadAOffset: 1
HheadDescent: 0
HheadDOffset: 1
OS2Vendor: 'PfEd'
MarkAttachClasses: 1
DEI: 91125
LangName: 1033
Encoding: iso8859-15
UnicodeInterp: none
NameList: AGL For New Fonts
DisplaySize: -128
AntiAlias: 1
FitToEm: 0
WinInfo: 98 14 7
BeginPrivate: 1
BlueValues 31 [-10 0 450 460 650 660 680 680]
EndPrivate
Grid
-1000 630 m 0
 2000 630 l 1024
  Named: "numerals"
-1000 350 m 0
 2000 350 l 1024
  Named: "H-bar"
-1000 650 m 0
 2000 650 l 1024
-1000 680 m 0
 2000 680 l 1024
-1000 450 m 0
 2000 450 l 1024
EndSplineSet
BeginChars: 263 105

StartChar: n
Encoding: 110 110 0
GlifName: n
Width: 510
VWidth: 0
Flags: HMW
LayerCount: 2
Back
SplineSet
485 110 m 25
 497 45 l 25
 565 20 l 25
 565 0 l 25
 330 0 l 25
 330 20 l 25
 388 45 l 25
 400 110 l 25
 400 260 l 2
 400 357 368 387 302 387 c 3
 250 387 206 353 185 301 c 1
 180 336 l 1
 204 404 254 460 344 460 c 3
 437 460 485 417 485 270 c 2
 485 110 l 25
30 445 m 1
 195 455 l 25
 180 336 l 1
 185 301 l 1
 185 110 l 1
 197 45 l 25
 255 20 l 25
 255 0 l 25
 20 0 l 25
 20 20 l 25
 88 45 l 25
 100 110 l 25
 100 330 l 25
 85 400 l 1
 30 425 l 25
 30 445 l 1
EndSplineSet
Fore
SplineSet
375 387 m 3
 410 387 421.666666667 350 405 290 c 2
 355 110 l 1
 335 0 l 1
 515 0 l 1
 515 20 l 1
 445 45 l 1
 445 130 l 1
 490 290 l 2
 498.4375 320 500 335 500 365 c 3
 500 410 470 460 415 460 c 3
 315 460 220 290 175 170 c 1
 215 345 l 1
 245 455 l 1
 60 445 l 1
 60 425 l 1
 125 400 l 1
 125 310 l 1
 90 110 l 1
 60 0 l 1
 150 0 l 1
 190 180 295 387 375 387 c 3
EndSplineSet
EndChar

StartChar: e
Encoding: 101 101 1
GlifName: e
Width: 451
VWidth: 0
Flags: HMW
LayerCount: 2
Back
SplineSet
243 -10 m 3
 90 -10 35 83 35 220 c 3
 35 357 100 460 237 460 c 3
 390 460 445 367 445 230 c 3
 445 93 380 -10 243 -10 c 3
EndSplineSet
Fore
SplineSet
397 91 m 1
 411 78 l 1
 372 21 319 -10 243 -10 c 3
 106 -10 40 83 40 220 c 3
 40 357 110 460 237 460 c 3
 351 460 405 389 405 287 c 1
 403 258 l 1
 134 258 l 1
 134 293 l 1
 242 293 l 1
 312 303 l 1
 312 374 298 417 230 417 c 3
 161 417 135 343 135 279 c 3
 135 129 182 54 276 54 c 3
 314 54 369 65 397 91 c 1
EndSplineSet
Validated: 5
EndChar

StartChar: o
Encoding: 111 111 2
GlifName: o
Width: 450
VWidth: 0
Flags: HMW
LayerCount: 2
Fore
SplineSet
290 420 m 3
 225 420 165 310 165 160 c 3
 165 70 185 30 240 30 c 3
 305 30 365 140 365 290 c 3
 365 380 345 420 290 420 c 3
220 -10 m 3
 120 -10 65 50 65 150 c 3
 65 310 165 460 310 460 c 3
 410 460 465 400 465 300 c 3
 465 140 365 -10 220 -10 c 3
EndSplineSet
EndChar

StartChar: p
Encoding: 112 112 3
GlifName: p
Width: 525
VWidth: 0
Flags: HMW
LayerCount: 2
Fore
SplineSet
322 460 m 3
 420 460 485 384 485 245 c 3
 485 108 404 -5 263 -5 c 3
 218 -5 192 1 165 11 c 9
 170 55 l 17
 193 45 218 40 255 40 c 3
 333 40 395 83 395 223 c 3
 395 335 351 387 280 387 c 3
 234 387 191 353 170 301 c 1
 165 336 l 1
 189 404 235 460 322 460 c 3
180 455 m 25
 165 336 l 1
 170 301 l 1
 170 55 l 1
 165 11 l 1
 170 -95 l 1
 185 -165 l 1
 255 -190 l 25
 255 -210 l 25
 15 -210 l 25
 15 -190 l 25
 70 -165 l 1
 85 -95 l 25
 85 330 l 1
 70 400 l 1
 15 425 l 25
 15 445 l 1
 180 455 l 25
EndSplineSet
Validated: 5
EndChar

StartChar: i
Encoding: 105 105 5
GlifName: i
Width: 235
VWidth: 0
Flags: HMW
LayerCount: 2
Back
SplineSet
70 620 m 7
 70 655 95 680 130 680 c 7
 165 680 190 655 190 620 c 7
 190 585 165 560 130 560 c 7
 95 560 70 585 70 620 c 7
195 455 m 29
 185 335 l 5
 185 115 l 5
 200 45 l 29
 260 20 l 29
 260 0 l 29
 20 0 l 29
 20 20 l 29
 85 45 l 29
 100 115 l 29
 100 330 l 29
 85 400 l 5
 30 425 l 29
 30 445 l 5
 195 455 l 29
EndSplineSet
Fore
SplineSet
245 0 m 1
 245 20 l 1
 175 45 l 1
 175 135 l 1
 210 345 l 1
 240 455 l 1
 60 445 l 1
 60 425 l 1
 125 400 l 1
 125 310 l 1
 90 100 l 1
 60 0 l 1
 245 0 l 1
135 620 m 3
 135 655 160 680 195 680 c 3
 230 680 255 655 255 620 c 3
 255 585 230 560 195 560 c 3
 160 560 135 585 135 620 c 3
EndSplineSet
EndChar

StartChar: d
Encoding: 100 100 6
GlifName: d
Width: 535
VWidth: 0
Flags: HMW
LayerCount: 2
Fore
SplineSet
130 227 m 3
 130 115 179 58 250 58 c 3
 307 58 334 86 360 119 c 1
 365 84 l 1
 341 36 303 -10 208 -10 c 3
 110 -10 40 66 40 205 c 3
 40 342 116 455 252 455 c 3
 302 455 338 444 365 429 c 9
 360 380 l 17
 337 399 307 410 270 410 c 3
 192 410 130 367 130 227 c 3
445 560 m 9
 445 130 l 1
 460 60 l 1
 525 45 l 25
 525 25 l 1
 357 -10 l 25
 365 84 l 1
 360 119 l 1
 360 380 l 1
 365 429 l 1
 360 555 l 1
 345 625 l 1
 290 640 l 25
 290 660 l 1
 455 680 l 1
 445 560 l 9
EndSplineSet
Validated: 5
EndChar

StartChar: t
Encoding: 116 116 7
GlifName: t
Width: 360
VWidth: 0
Flags: HMW
LayerCount: 2
Fore
SplineSet
180 555 m 1
 180 450 l 1
 323 450 l 1
 323 400 l 1
 180 400 l 1
 180 173 l 2
 180 87 197 57 240 57 c 3
 267 57 302 64 316 73 c 1
 330 60 l 1
 311 25 256 -10 200 -10 c 3
 113 -10 95 46 95 133 c 2
 95 400 l 1
 10 400 l 1
 10 415 l 1
 165 555 l 1
 180 555 l 1
EndSplineSet
Validated: 1
EndChar

StartChar: l
Encoding: 108 108 8
GlifName: l
Width: 270
VWidth: 0
Flags: HMW
LayerCount: 2
Fore
SplineSet
95 555 m 25
 80 625 l 1
 15 640 l 25
 15 660 l 1
 190 680 l 1
 180 560 l 1
 180 115 l 1
 195 45 l 25
 255 20 l 25
 255 0 l 25
 15 0 l 25
 15 20 l 25
 80 45 l 25
 95 115 l 1
 95 555 l 25
EndSplineSet
Validated: 1
EndChar

StartChar: c
Encoding: 99 99 9
GlifName: c
Width: 450
VWidth: 0
Flags: HMW
LayerCount: 2
Fore
SplineSet
324 402 m 1
 304 412 291 417 254 417 c 3
 165 417 135 330 135 258 c 3
 135 111 191 55 284 55 c 3
 322 55 373 67 401 93 c 1
 415 80 l 1
 376 23 319 -10 243 -10 c 3
 107 -10 40 83 40 220 c 3
 40 357 127 460 253 460 c 3
 329 460 378 439 395 425 c 1
 397 312 l 1
 347 308 l 1
 324 402 l 1
EndSplineSet
Validated: 1
EndChar

StartChar: a
Encoding: 97 97 10
GlifName: a
Width: 460
VWidth: 0
Flags: HMW
LayerCount: 2
Fore
SplineSet
220 460 m 3
 325 460 375 420 375 290 c 2
 375 130 l 17
 390 60 l 1
 455 45 l 25
 455 25 l 1
 287 -10 l 25
 295 85 l 1
 290 160 l 9
 290 275 l 2
 290 358 255 392 190 392 c 3
 137 392 106 371 77 343 c 1
 61 356 l 1
 83 407 135 460 220 460 c 3
290 248 m 9
 290 213 l 17
 155 213 130 185 130 127 c 3
 130 79 153 54 197 54 c 3
 237 54 290 83 290 160 c 1
 295 85 l 1
 275 36 227 -10 162 -10 c 3
 79 -10 35 36 35 105 c 3
 35 190 97 248 290 248 c 9
EndSplineSet
Validated: 5
EndChar

StartChar: b
Encoding: 98 98 11
GlifName: b
Width: 520
VWidth: 0
Flags: HMW
LayerCount: 2
Fore
SplineSet
85 15 m 1
 85 555 l 1
 70 625 l 1
 15 640 l 25
 15 660 l 1
 180 680 l 1
 170 560 l 9
 165 351 l 1
 170 316 l 1
 170 110 l 1
 180 40 l 1
 195 35 206 32 224 32 c 3
 319 32 390 77 390 220 c 3
 390 335 356 387 280 387 c 3
 234 387 191 356 170 316 c 1
 165 351 l 1
 189 406 244 460 317 460 c 3
 420 460 480 384 480 242 c 3
 480 102 372 -10 223 -10 c 3
 165 -10 123 -1 85 15 c 1
EndSplineSet
Validated: 5
EndChar

StartChar: f
Encoding: 102 102 12
GlifName: f
Width: 330
VWidth: 0
Flags: HMW
LayerCount: 2
Back
SplineSet
180 555 m 5
 180 450 l 5
 323 450 l 5
 323 400 l 5
 180 400 l 5
 180 173 l 6
 180 87 197 57 240 57 c 7
 267 57 302 64 316 73 c 5
 330 60 l 5
 311 25 256 -10 200 -10 c 7
 113 -10 95 46 95 133 c 6
 95 400 l 5
 10 400 l 5
 10 415 l 5
 165 555 l 5
 180 555 l 5
EndSplineSet
Fore
SplineSet
49 450 m 1
 180 450 l 1
 300 450 l 1
 300 400 l 1
 10 400 l 1
 10 415 l 1
 49 450 l 1
262 610 m 3
 199 610 172 593 172 561 c 3
 172 526 180 493 180 450 c 3
 180 115 l 1
 195 45 l 25
 275 20 l 25
 275 0 l 25
 20 0 l 25
 20 20 l 25
 80 45 l 25
 95 115 l 1
 95 460 l 3
 95 565 155 690 282 690 c 3
 313 690 330 686 350 678 c 9
 326 594 l 17
 310 601 287 610 262 610 c 3
EndSplineSet
Validated: 5
EndChar

StartChar: v
Encoding: 118 118 13
GlifName: v
Width: 480
VWidth: 0
Flags: HMW
LayerCount: 2
Back
SplineSet
349 335 m 5
 364 405 l 29
 310 430 l 29
 310 450 l 29
 490 450 l 29
 490 430 l 29
 431 405 l 29
 396 335 l 5
 272 -10 l 21
 209 -10 l 5
 82 335 l 5
 47 405 l 5
 -3 430 l 29
 -3 450 l 29
 210 450 l 29
 210 430 l 29
 160 405 l 29
 175 335 l 29
 266 78 l 29
 349 335 l 5
EndSplineSet
Fore
SplineSet
349 335 m 1
 359 405 l 25
 305 430 l 25
 305 450 l 25
 490 450 l 25
 490 430 l 25
 436 405 l 25
 396 335 l 1
 272 -10 l 17
 209 -10 l 1
 82 335 l 1
 47 405 l 1
 -3 430 l 25
 -3 450 l 25
 210 450 l 25
 210 430 l 25
 160 405 l 25
 175 335 l 25
 264 83 l 25
 349 335 l 1
EndSplineSet
Validated: 1
EndChar

StartChar: r
Encoding: 114 114 14
GlifName: r
Width: 390
VWidth: 0
Flags: HMW
LayerCount: 2
Back
SplineSet
485 110 m 29
 497 45 l 29
 565 20 l 29
 565 0 l 29
 330 0 l 29
 330 20 l 29
 388 45 l 29
 400 110 l 29
 400 260 l 6
 400 357 368 387 302 387 c 7
 250 387 206 353 185 301 c 5
 180 336 l 5
 204 404 254 460 344 460 c 7
 437 460 485 417 485 270 c 6
 485 110 l 29
30 445 m 5
 195 455 l 29
 180 336 l 5
 185 301 l 5
 185 110 l 5
 197 45 l 29
 255 20 l 29
 255 0 l 29
 20 0 l 29
 20 20 l 29
 88 45 l 29
 100 110 l 29
 100 330 l 29
 85 400 l 5
 30 425 l 29
 30 445 l 5
EndSplineSet
Fore
SplineSet
100 110 m 9
 100 330 l 25
 85 400 l 1
 30 425 l 25
 30 445 l 1
 195 455 l 25
 177 310 l 1
 180 275 l 1
 185 110 l 1
 197 45 l 25
 280 20 l 25
 280 0 l 25
 25 0 l 25
 25 20 l 25
 88 45 l 25
 100 110 l 9
327 460 m 3
 347 460 356 458 372 455 c 9
 360 355 l 17
 345 358 330 362 311 362 c 3
 237 362 204 338 180 275 c 1
 177 310 l 1
 200 376 253 460 327 460 c 3
EndSplineSet
Validated: 5
EndChar

StartChar: s
Encoding: 115 115 15
GlifName: s
Width: 410
VWidth: 0
Flags: HMW
LayerCount: 2
Fore
SplineSet
276 95 m 3
 276 140 243 158 168 182 c 0
 94 206 40 252 40 329 c 3
 40 407 96 460 201 460 c 3
 288 460 321 439 338 425 c 1
 338 318 l 1
 291 315 l 1
 277 389 l 1
 257 407 242 418 193 418 c 3
 145 418 115 394 115 354 c 3
 115 315 160 288 230 266 c 0
 308 241 355 197 355 132 c 3
 355 32 298 -11 175 -11 c 3
 115 -11 75 5 42 24 c 1
 40 136 l 1
 87 139 l 1
 103 65 l 1
 127 45 156 34 193 34 c 3
 242 34 276 51 276 95 c 3
EndSplineSet
Validated: 1
EndChar

StartChar: g
Encoding: 103 103 16
GlifName: g
Width: 500
VWidth: 0
Flags: MW
LayerCount: 2
Fore
SplineSet
460 515 m 1
 450 425 l 1
 362 430 l 1
 315 450 l 1
 380 470 l 1
 442 519 l 1
 460 515 l 1
141 172 m 9
 173 160 l 17
 158 143 148 123 148 108 c 3
 148 81 185 72 257 72 c 3
 388 72 465 55 465 -36 c 3
 465 -135 352 -220 225 -220 c 3
 123 -220 40 -191 40 -98 c 3
 40 -43 76 -5 131 23 c 9
 151 5 l 17
 116 -20 112 -36 112 -70 c 3
 112 -129 169 -165 251 -165 c 3
 330 -165 397 -138 397 -68 c 3
 397 -23 342 -10 240 -10 c 3
 116 -10 71 23 71 72 c 3
 71 99 106 144 141 172 c 9
233 419 m 3
 183 419 155 383 155 310 c 3
 155 230 188 191 247 191 c 3
 297 191 325 227 325 300 c 3
 325 381 292 419 233 419 c 3
242 150 m 3
 118 150 60 211 60 302 c 3
 60 393 126 460 238 460 c 3
 362 460 420 399 420 308 c 3
 420 217 354 150 242 150 c 3
EndSplineSet
Validated: 5
EndChar

StartChar: y
Encoding: 121 121 17
GlifName: y
Width: 480
VWidth: 0
Flags: HMW
LayerCount: 2
Back
SplineSet
349 335 m 5
 359 405 l 29
 305 430 l 29
 305 450 l 29
 490 450 l 29
 490 430 l 29
 436 405 l 29
 396 335 l 5
 272 -10 l 21
 209 -10 l 5
 82 335 l 5
 47 405 l 5
 -3 430 l 29
 -3 450 l 29
 210 450 l 29
 210 430 l 29
 160 405 l 29
 175 335 l 29
 264 83 l 29
 349 335 l 5
EndSplineSet
Fore
SplineSet
86 -220 m 3
 55 -220 31 -216 11 -208 c 9
 35 -122 l 17
 59 -131 101 -143 132 -143 c 3
 173 -143 195 -120 211 -59 c 2
 220 -25 l 1
 81 335 l 1
 45 405 l 1
 -5 430 l 25
 -5 450 l 25
 208 450 l 25
 208 430 l 25
 158 405 l 25
 174 335 l 25
 266 88 l 1
 349 335 l 1
 359 405 l 25
 300 430 l 25
 300 450 l 25
 485 450 l 25
 485 430 l 25
 436 405 l 25
 396 335 l 1
 264 -35 l 18
 211 -183 161 -220 86 -220 c 3
EndSplineSet
Validated: 1
EndChar

StartChar: m
Encoding: 109 109 18
GlifName: m
Width: 775
VWidth: 0
Flags: HMW
LayerCount: 2
Back
SplineSet
765 110 m 25
 777 45 l 25
 845 20 l 25
 845 0 l 25
 610 0 l 25
 610 20 l 25
 668 45 l 25
 680 110 l 25
 680 260 l 2
 680 357 653 387 587 387 c 3
 535 387 496 353 474 299 c 1
 470 336 l 1
 494 404 539 460 629 460 c 3
 722 460 765 417 765 270 c 2
 765 110 l 25
475 110 m 25
 487 45 l 25
 545 20 l 25
 545 0 l 25
 320 0 l 25
 320 20 l 25
 378 45 l 25
 390 110 l 25
 390 260 l 2
 390 357 363 387 297 387 c 3
 245 387 206 353 185 301 c 1
 180 336 l 1
 204 404 249 460 339 460 c 3
 432 460 475 417 475 270 c 2
 475 110 l 25
30 445 m 1
 195 455 l 25
 180 336 l 1
 185 301 l 1
 185 110 l 1
 197 45 l 25
 255 20 l 25
 255 0 l 25
 20 0 l 25
 20 20 l 25
 88 45 l 25
 100 110 l 25
 100 330 l 25
 85 400 l 1
 30 425 l 25
 30 445 l 1
EndSplineSet
Fore
SplineSet
445 170 m 1
 475 290 l 2
 483 320 485 335 485 365 c 3
 485 410 460 460 405 460 c 3
 305 460 220 290 175 170 c 1
 215 345 l 1
 245 455 l 1
 60 445 l 1
 60 425 l 1
 125 400 l 1
 125 310 l 1
 90 110 l 1
 60 0 l 1
 150 0 l 1
 190 180 285 387 365 387 c 3
 400 387 401.666992188 350 390 290 c 2
 355 110 l 1
 325 0 l 1
 415 0 l 1
 455 180 560 387 640 387 c 3
 675 387 686.666992188 350 670 290 c 2
 620 110 l 1
 600 0 l 1
 780 0 l 1
 780 20 l 1
 710 45 l 1
 710 130 l 1
 755 290 l 2
 763.4375 320 765 335 765 365 c 3
 765 410 735 460 680 460 c 3
 580 460 490 290 445 170 c 1
EndSplineSet
EndChar

StartChar: I
Encoding: 73 73 19
GlifName: I_
Width: 330
VWidth: 0
Flags: MW
LayerCount: 2
Back
SplineSet
215 455 m 25
 205 335 l 1
 205 115 l 1
 220 45 l 25
 280 20 l 25
 280 0 l 25
 40 0 l 25
 40 20 l 25
 105 45 l 25
 120 115 l 25
 120 330 l 25
 105 400 l 1
 50 425 l 25
 50 445 l 1
 215 455 l 25
EndSplineSet
Fore
SplineSet
35 650 m 29
 295 650 l 29
 295 628 l 29
 225 603 l 29
 210 543 l 21
 210 127 l 5
 225 47 l 29
 300 22 l 29
 300 0 l 29
 30 0 l 29
 30 22 l 29
 105 47 l 29
 120 127 l 5
 120 543 l 21
 105 603 l 29
 35 628 l 29
 35 650 l 29
EndSplineSet
Validated: 1
EndChar

StartChar: u
Encoding: 117 117 20
GlifName: u
Width: 500
VWidth: 0
Flags: HMWO
LayerCount: 2
Back
SplineSet
365 105 m 1
 365 140 l 1
 360 335 l 1
 348 400 l 1
 285 425 l 25
 285 445 l 1
 460 453 l 25
 445 340 l 1
 445 125 l 1
 457 60 l 1
 525 45 l 25
 525 25 l 1
 357 -10 l 1
 365 105 l 1
175 454 m 25
 163 340 l 9
 163 190 l 2
 163 93 192 63 255 63 c 3
 311 63 340 98 365 140 c 1
 365 105 l 1
 332 43 303 -10 214 -10 c 3
 129 -10 80 33 80 180 c 2
 80 335 l 25
 68 400 l 1
 0 426 l 25
 0 446 l 1
 175 454 l 25
EndSplineSet
Fore
SplineSet
205 63 m 3
 170 63 166.494117647 99.2235294118 180 160 c 2
 220 340 l 1
 250 450 l 1
 60 450 l 1
 60 430 l 1
 130 405 l 1
 130 320 l 1
 95 160 l 2
 88.3718546132 129.699906803 85 115 85 85 c 3
 85 40 110 -10 165 -10 c 3
 265 -10 350 160 395 280 c 1
 355 105 l 1
 325 -5 l 1
 510 5 l 1
 510 25 l 1
 445 50 l 1
 445 140 l 1
 480 340 l 1
 515 450 l 1
 420 450 l 1
 380 270 285 63 205 63 c 3
EndSplineSet
EndChar

StartChar: h
Encoding: 104 104 21
GlifName: h
Width: 510
VWidth: 0
Flags: HMW
LayerCount: 2
Back
SplineSet
334 460 m 7
 427 460 475 417 475 270 c 6
 475 110 l 29
 487 45 l 29
 555 20 l 29
 555 0 l 29
 320 0 l 29
 320 20 l 29
 378 45 l 29
 390 110 l 29
 390 260 l 6
 390 357 358 387 292 387 c 7
 246 387 196 356 175 316 c 5
 170 351 l 5
 194 406 252 460 334 460 c 7
175 316 m 5
 175 110 l 5
 187 45 l 29
 245 20 l 29
 245 0 l 29
 10 0 l 29
 10 20 l 29
 78 45 l 29
 90 110 l 5
 90 555 l 21
 75 625 l 5
 10 640 l 29
 10 660 l 5
 185 680 l 5
 175 560 l 5
 170 351 l 13
 175 316 l 5
EndSplineSet
Fore
SplineSet
375 387 m 3
 410 387 421.666666667 350 405 290 c 2
 355 110 l 1
 335 0 l 1
 515 0 l 1
 515 20 l 1
 445 45 l 1
 445 130 l 1
 490 290 l 2
 498.4375 320 500 335 500 365 c 3
 500 410 470 460 415 460 c 3
 315 460 220 290 175 170 c 1
 255 570 l 1
 290 680 l 1
 100 660 l 1
 100 640 l 1
 165 625 l 1
 165 535 l 1
 90 110 l 1
 60 0 l 1
 150 0 l 1
 190 180 295 387 375 387 c 3
EndSplineSet
EndChar

StartChar: j
Encoding: 106 106 22
GlifName: j
Width: 265
VWidth: 0
Flags: HMW
LayerCount: 2
Back
SplineSet
-2 -220 m 7
 -33 -220 -57 -216 -77 -208 c 13
 -53 -122 l 21
 -29 -131 13 -143 44 -143 c 7
 85.0302734375 -143 109.1328125 -119.793945312 128 -59 c 2
 137 -30 l 1
 -7 335 l 1
 -43 405 l 1
 -93 430 l 25
 -93 450 l 25
 120 450 l 25
 120 430 l 25
 70 405 l 25
 86 335 l 25
 180 83 l 1
 266 335 l 1
 281 405 l 25
 222 430 l 25
 222 450 l 25
 397 450 l 25
 397 430 l 25
 343 405 l 25
 308 335 l 1
 176 -35 l 18
 122.23828125 -182.34765625 73.0263671875 -220 -2 -220 c 7
EndSplineSet
Fore
SplineSet
70 620 m 3
 70 655 95 680 130 680 c 3
 165 680 190 655 190 620 c 3
 190 585 165 560 130 560 c 3
 95 560 70 585 70 620 c 3
26 -220 m 3
 -0 -220 -15 -216 -35 -210 c 9
 -14 -122 l 17
 12 -131 43 -137 69 -137 c 3
 94 -137 112 -124 112 -90 c 3
 112 -60 100 33 100 80 c 2
 100 330 l 1
 85 400 l 1
 30 425 l 25
 30 445 l 1
 195 455 l 25
 185 335 l 1
 185 40 l 2
 185 -153 109 -220 26 -220 c 3
EndSplineSet
Validated: 1
EndChar

StartChar: k
Encoding: 107 107 23
GlifName: k
Width: 520
VWidth: 0
Flags: HMW
LayerCount: 2
Back
SplineSet
95 555 m 29
 80 625 l 5
 15 640 l 29
 15 660 l 5
 190 680 l 5
 180 560 l 5
 180 115 l 5
 195 45 l 29
 255 20 l 29
 255 0 l 29
 15 0 l 29
 15 20 l 29
 80 45 l 29
 95 115 l 5
 95 555 l 29
EndSplineSet
Fore
SplineSet
454 45 m 1
 520 20 l 25
 520 0 l 1
 365 0 l 25
 291 105 l 1
 205 215 l 29
 313 345 l 5
 340 400 l 29
 295 430 l 29
 295 450 l 29
 490 450 l 29
 490 430 l 29
 432 400 l 29
 366 345 l 5
 283 246 l 21
 454 45 l 1
95 555 m 25
 80 625 l 1
 15 640 l 25
 15 660 l 1
 190 680 l 1
 180 560 l 1
 180 115 l 1
 195 45 l 25
 255 20 l 25
 255 0 l 25
 15 0 l 25
 15 20 l 25
 80 45 l 25
 95 115 l 1
 95 555 l 25
EndSplineSet
Validated: 1
EndChar

StartChar: w
Encoding: 119 119 24
GlifName: w
Width: 735
VWidth: 0
Flags: HMW
LayerCount: 2
Back
SplineSet
349 335 m 5
 359 405 l 29
 310 430 l 29
 310 450 l 29
 490 450 l 29
 490 430 l 29
 436 405 l 29
 396 335 l 5
 272 -10 l 21
 209 -10 l 5
 82 335 l 5
 47 405 l 5
 -3 430 l 29
 -3 450 l 29
 210 450 l 29
 210 430 l 29
 160 405 l 29
 175 335 l 29
 264 83 l 29
 349 335 l 5
EndSplineSet
Fore
SplineSet
416 430 m 1
 529 83 l 1
 603 335 l 1
 614 405 l 25
 560 430 l 25
 560 450 l 25
 745 450 l 25
 745 430 l 25
 691 405 l 25
 650 335 l 1
 537 -10 l 17
 474 -10 l 1
 369 305 l 1
 267 -10 l 1
 204 -10 l 1
 84 335 l 1
 50 405 l 1
 0 430 l 25
 0 450 l 25
 213 450 l 25
 213 430 l 25
 163 405 l 25
 177 335 l 25
 254 83 l 1
 365 430 l 1
 416 430 l 1
EndSplineSet
Validated: 1
EndChar

StartChar: x
Encoding: 120 120 25
GlifName: x
Width: 460
VWidth: 0
Flags: HMW
LayerCount: 2
Back
SplineSet
340 335 m 5
 350 405 l 29
 305 430 l 29
 305 450 l 29
 480 450 l 29
 480 430 l 29
 430 405 l 29
 390 335 l 5
 262 -10 l 21
 199 -10 l 5
 70 335 l 5
 35 405 l 5
 -15 430 l 29
 -15 450 l 29
 198 450 l 29
 198 430 l 29
 148 405 l 29
 163 335 l 29
 256 78 l 29
 340 335 l 5
EndSplineSet
Fore
SplineSet
262 450 m 25
 447 450 l 25
 447 430 l 25
 385 405 l 25
 331 345 l 9
 247 220 l 25
 211 235 l 25
 282 345 l 1
 309 405 l 25
 262 430 l 25
 262 450 l 25
155 105 m 1
 126 45 l 25
 173 20 l 25
 173 0 l 25
 -12 0 l 25
 -12 20 l 25
 50 45 l 25
 106 105 l 9
 191 230 l 25
 232 215 l 25
 155 105 l 1
206 335 m 17
 253 256 l 1
 347 115 l 1
 405 45 l 1
 460 20 l 25
 460 0 l 25
 242 0 l 25
 242 20 l 25
 282 45 l 1
 249 115 l 17
 192 207 l 1
 108 335 l 1
 50 405 l 1
 -5 430 l 25
 -5 450 l 25
 213 450 l 25
 213 430 l 25
 173 405 l 25
 206 335 l 17
EndSplineSet
Validated: 5
EndChar

StartChar: q
Encoding: 113 113 26
GlifName: q
Width: 520
VWidth: 0
Flags: HMW
LayerCount: 2
Back
SplineSet
130 227 m 7
 130 115 179 58 250 58 c 7
 307 58 334 86 360 119 c 5
 365 84 l 5
 341 36 303 -10 208 -10 c 7
 110 -10 40 66 40 205 c 7
 40 342 116 455 252 455 c 7
 302 455 333 445 360 430 c 13
 360 380 l 21
 337 399 307 410 270 410 c 7
 192 410 130 367 130 227 c 7
445 560 m 13
 445 130 l 5
 460 60 l 5
 525 45 l 29
 525 25 l 5
 350 -10 l 29
 365 84 l 5
 360 119 l 5
 360 555 l 13
 345 625 l 5
 290 640 l 29
 290 660 l 5
 455 680 l 5
 445 560 l 13
EndSplineSet
Fore
SplineSet
525 -210 m 17
 285 -210 l 25
 285 -190 l 25
 345 -165 l 1
 360 -95 l 25
 365 86 l 1
 360 121 l 1
 360 335 l 1
 350 405 l 1
 335 413 314 418 291 418 c 3
 201 418 130 373 130 230 c 3
 130 115 174 63 250 63 c 3
 296 63 334 83 360 121 c 1
 365 86 l 1
 341 33 286 -10 213 -10 c 3
 110 -10 40 66 40 208 c 3
 40 348 148 460 297 460 c 3
 355 460 407 451 445 430 c 1
 445 -95 l 1
 460 -165 l 1
 525 -190 l 1
 525 -210 l 17
EndSplineSet
Validated: 5
EndChar

StartChar: z
Encoding: 122 122 27
GlifName: z
Width: 450
VWidth: 0
Flags: HMW
LayerCount: 2
Fore
SplineSet
60 455 m 1
 160 450 l 1
 400 450 l 1
 400 430 l 1
 153 37 l 1
 277 37 l 1
 347 52 l 1
 367 130 l 1
 410 125 l 1
 403 0 l 1
 40 0 l 1
 40 20 l 1
 287 413 l 1
 186 413 l 1
 116 398 l 1
 96 319 l 1
 53 323 l 1
 60 455 l 1
EndSplineSet
Validated: 1
EndChar

StartChar: hyphen
Encoding: 45 45 28
GlifName: hyphen
Width: 320
VWidth: 0
Flags: HMW
LayerCount: 2
Fore
SplineSet
50 275 m 5
 270 275 l 5
 270 220 l 5
 50 220 l 5
 50 275 l 5
EndSplineSet
Validated: 1
EndChar

StartChar: period
Encoding: 46 46 29
GlifName: period
Width: 260
VWidth: 0
Flags: HMW
LayerCount: 2
Fore
SplineSet
65 55 m 3
 65 95 90 120 130 120 c 3
 170 120 195 95 195 55 c 3
 195 15 170 -10 130 -10 c 3
 90 -10 65 15 65 55 c 3
EndSplineSet
Validated: 1
EndChar

StartChar: comma
Encoding: 44 44 30
GlifName: comma
Width: 260
VWidth: 0
Flags: HMW
LayerCount: 2
Fore
SplineSet
65 56 m 3
 65 93 90 120 130 120 c 3
 174 120 200 87 200 37 c 3
 200 -48 152 -104 94 -139 c 9
 72 -106 l 1
 105 -85 142 -52 138 0 c 1
 131 -2 127 -3 120 -3 c 3
 86 -3 65 19 65 56 c 3
EndSplineSet
Validated: 33
EndChar

StartChar: exclam
Encoding: 33 33 31
GlifName: exclam
Width: 260
VWidth: 0
Flags: HMW
LayerCount: 2
Fore
SplineSet
183 655 m 1
 155 209 l 1
 105 209 l 1
 70 640 l 1
 183 655 l 1
EndSplineSet
Refer: 29 46 N 1 0 0 1 0 0 2
Validated: 1
EndChar

StartChar: Y
Encoding: 89 89 32
GlifName: Y_
Width: 580
VWidth: 0
Flags: HMW
LayerCount: 2
Fore
SplineSet
245 318 m 17
 335 318 l 17
 335 127 l 1
 350 47 l 25
 425 22 l 25
 425 0 l 25
 155 0 l 25
 155 22 l 25
 230 47 l 25
 245 127 l 1
 245 318 l 17
-5 650 m 25
 240 650 l 25
 240 628 l 25
 180 603 l 25
 209 533 l 1
 315 342 l 1
 413 533 l 1
 435 603 l 25
 371 628 l 25
 371 650 l 25
 580 650 l 25
 580 628 l 25
 516 603 l 25
 464 533 l 1
 319 259 l 1
 256 259 l 1
 104 533 l 1
 55 603 l 1
 -5 628 l 25
 -5 650 l 25
EndSplineSet
Validated: 5
EndChar

StartChar: O
Encoding: 79 79 35
GlifName: O_
Width: 720
VWidth: 0
Flags: HMW
LayerCount: 2
Back
SplineSet
250 415 m 3
 171 415 140 343 140 232 c 3
 140 111 178 35 270 35 c 3
 349 35 380 107 380 218 c 3
 380 339 342 415 250 415 c 3
263 -10 m 3
 115 -10 40 83 40 220 c 3
 40 357 125 460 257 460 c 3
 405 460 480 367 480 230 c 3
 480 93 395 -10 263 -10 c 3
EndSplineSet
Fore
SplineSet
345 613 m 3
 215 613 155 497 155 332 c 3
 155 152 225 37 375 37 c 3
 505 37 565 153 565 318 c 3
 565 498 495 613 345 613 c 3
365 -10 m 3
 153 -10 50 120 50 320 c 3
 50 520 165 660 355 660 c 3
 567 660 670 530 670 330 c 3
 670 130 555 -10 365 -10 c 3
EndSplineSet
Validated: 1
EndChar

StartChar: D
Encoding: 68 68 36
GlifName: D_
Width: 690
VWidth: 0
Flags: HMW
LayerCount: 2
Back
SplineSet
120 523 m 17
 105 603 l 25
 35 628 l 25
 35 650 l 25
 295 650 l 25
 295 628 l 25
 225 603 l 25
 210 523 l 17
 210 127 l 1
 225 47 l 25
 300 22 l 25
 300 0 l 25
 30 0 l 25
 30 22 l 25
 105 47 l 25
 120 127 l 1
 120 523 l 17
EndSplineSet
Fore
SplineSet
35 650 m 1
 325 650 l 18
 547 650 650 560 650 340 c 3
 650 120 520 0 320 0 c 10
 30 0 l 1
 30 22 l 25
 105 47 l 25
 120 127 l 1
 120 523 l 17
 105 603 l 25
 35 628 l 25
 35 650 l 1
210 610 m 1
 210 55 l 1
 290 40 l 1
 315 40 l 2
 445 40 545 120 545 325 c 3
 545 530 465 610 315 610 c 10
 210 610 l 1
EndSplineSet
Validated: 1
EndChar

StartChar: U
Encoding: 85 85 37
GlifName: U_
Width: 700
VWidth: 0
Flags: HMW
LayerCount: 2
Fore
SplineSet
595 250 m 2
 595 70 520 -10 345 -10 c 3
 165 -10 105 70 105 250 c 2
 105 523 l 1
 90 603 l 25
 20 628 l 25
 20 650 l 25
 280 650 l 25
 280 628 l 25
 210 603 l 25
 195 523 l 1
 195 220 l 2
 195 85 260 40 370 40 c 3
 480 40 545 85 545 220 c 2
 545 523 l 1
 530 603 l 25
 460 628 l 25
 460 650 l 25
 680 650 l 25
 680 628 l 25
 610 603 l 25
 595 523 l 1
 595 250 l 2
EndSplineSet
Validated: 1
EndChar

StartChar: Q
Encoding: 81 81 38
GlifName: Q_
Width: 720
VWidth: 0
Flags: HMW
LayerCount: 2
Fore
SplineSet
430 28 m 1
 440 0 l 1
 310 -34 l 1
 416 -50 l 1
 539 -82 l 1
 622 -69 l 25
 629 -90 l 1
 490 -163 l 25
 350 -112 l 1
 153 -59 l 1
 153 -39 l 1
 251 -22 l 1
 430 28 l 1
EndSplineSet
Refer: 35 79 N 1 0 0 1 0 0 2
Validated: 5
EndChar

StartChar: E
Encoding: 69 69 39
GlifName: E_
Width: 570
VWidth: 0
Flags: HMW
LayerCount: 2
Fore
SplineSet
210 350 m 1
 285 350 l 1
 365 360 l 1
 380 440 l 1
 412 440 l 1
 412 220 l 1
 380 220 l 1
 365 300 l 1
 285 310 l 25
 210 310 l 1
 210 350 l 1
35 650 m 1
 503 650 l 25
 510 506 l 1
 470 502 l 1
 447 595 l 1
 367 610 l 25
 210 610 l 1
 210 55 l 1
 290 40 l 1
 387 40 l 1
 467 55 l 1
 492 148 l 1
 533 143 l 1
 523 0 l 25
 30 0 l 1
 30 22 l 25
 105 47 l 25
 120 127 l 1
 120 523 l 17
 105 603 l 25
 35 628 l 25
 35 650 l 1
EndSplineSet
Validated: 5
EndChar

StartChar: A
Encoding: 65 65 40
GlifName: A_
Width: 660
VWidth: 0
Flags: HMW
LayerCount: 2
Back
SplineSet
151 115 m 1
 141 45 l 25
 195 20 l 25
 195 0 l 25
 10 0 l 25
 10 20 l 25
 64 45 l 25
 104 115 l 1
 228 460 l 17
 291 460 l 1
 418 115 l 1
 453 45 l 1
 503 20 l 25
 503 0 l 25
 290 0 l 25
 290 20 l 25
 340 45 l 25
 325 115 l 25
 236 367 l 25
 151 115 l 1
EndSplineSet
Fore
SplineSet
181 275 m 1
 444 275 l 1
 444 235 l 1
 181 235 l 1
 181 275 l 1
296 660 m 17
 366 660 l 1
 560 127 l 1
 600 47 l 1
 660 22 l 25
 660 0 l 25
 422 0 l 25
 422 22 l 25
 482 47 l 25
 462 127 l 25
 307 564 l 1
 157 127 l 1
 144 47 l 25
 208 22 l 25
 208 0 l 25
 0 0 l 25
 0 22 l 25
 64 47 l 25
 107 127 l 1
 296 660 l 17
EndSplineSet
Validated: 5
EndChar

StartChar: H
Encoding: 72 72 41
GlifName: H_
Width: 740
VWidth: 0
Flags: HMW
LayerCount: 2
Back
SplineSet
120 523 m 21
 105 603 l 29
 35 628 l 29
 35 650 l 29
 295 650 l 29
 295 628 l 29
 225 603 l 29
 210 523 l 21
 210 127 l 5
 225 47 l 29
 300 22 l 29
 300 0 l 29
 30 0 l 29
 30 22 l 29
 105 47 l 29
 120 127 l 5
 120 523 l 21
EndSplineSet
Fore
SplineSet
210 350 m 1
 530 350 l 1
 530 310 l 25
 210 310 l 1
 210 350 l 1
530 523 m 17
 515 603 l 25
 450 628 l 25
 450 650 l 25
 705 650 l 25
 705 628 l 25
 635 603 l 25
 620 523 l 17
 620 127 l 1
 635 47 l 25
 710 22 l 25
 710 0 l 25
 445 0 l 25
 445 22 l 25
 515 47 l 25
 530 127 l 1
 530 523 l 17
120 523 m 17
 105 603 l 25
 35 628 l 25
 35 650 l 25
 290 650 l 25
 290 628 l 25
 225 603 l 25
 210 523 l 17
 210 127 l 1
 225 47 l 25
 295 22 l 25
 295 0 l 25
 30 0 l 25
 30 22 l 25
 105 47 l 25
 120 127 l 1
 120 523 l 17
EndSplineSet
Validated: 5
EndChar

StartChar: B
Encoding: 66 66 42
GlifName: B_
Width: 600
VWidth: 0
Flags: HMW
LayerCount: 2
Fore
SplineSet
540 190 m 3
 540 81 462 0 320 0 c 2
 30 0 l 1
 30 22 l 25
 105 47 l 25
 120 127 l 1
 120 523 l 17
 105 603 l 25
 35 628 l 25
 35 650 l 1
 305 650 l 2
 450 650 510 598 510 500 c 3
 510 406 444 366 380 350 c 1
 461 343 540 288 540 190 c 3
440 190 m 3
 440 301 357 320 270 320 c 2
 210 320 l 1
 210 360 l 1
 270 360 l 2
 364 360 410 420 410 500 c 3
 410 568 377 610 270 610 c 2
 210 610 l 1
 210 50 l 1
 280 40 l 1
 295 40 l 2
 381 40 440 89 440 190 c 3
EndSplineSet
Validated: 5
EndChar

StartChar: L
Encoding: 76 76 43
GlifName: L_
Width: 540
VWidth: 0
Flags: HMW
LayerCount: 2
Fore
SplineSet
210 523 m 17
 210 55 l 1
 290 40 l 1
 374 40 l 1
 454 55 l 1
 475 155 l 1
 520 153 l 1
 510 0 l 25
 30 0 l 1
 30 22 l 25
 105 47 l 25
 120 127 l 1
 120 523 l 17
 105 603 l 25
 35 628 l 25
 35 650 l 25
 295 650 l 25
 295 628 l 25
 225 603 l 1
 210 523 l 17
EndSplineSet
Validated: 1
EndChar

StartChar: C
Encoding: 67 67 44
GlifName: C_
Width: 630
VWidth: 0
Flags: HMW
LayerCount: 2
Fore
SplineSet
390 37 m 3
 442 37 473 46 519 66 c 1
 534 165 l 1
 580 160 l 1
 570 15 l 1
 520 0 453 -10 380 -10 c 3
 158 -10 50 120 50 320 c 3
 50 520 170 660 370 660 c 3
 442 660 515 650 565 635 c 1
 570 490 l 1
 525 487 l 1
 510 580 l 1
 470 598 434 613 360 613 c 3
 220 613 155 497 155 332 c 3
 155 152 230 37 390 37 c 3
EndSplineSet
Validated: 1
EndChar

StartChar: F
Encoding: 70 70 45
GlifName: F_
Width: 540
VWidth: 0
Flags: HMW
LayerCount: 2
Back
SplineSet
120 523 m 21
 105 603 l 29
 35 628 l 29
 35 650 l 29
 295 650 l 29
 295 628 l 29
 225 603 l 29
 210 523 l 21
 210 127 l 5
 225 47 l 29
 300 22 l 29
 300 0 l 29
 30 0 l 29
 30 22 l 29
 105 47 l 29
 120 127 l 5
 120 523 l 21
210 350 m 1
 285 350 l 1
 365 360 l 1
 380 440 l 1
 412 440 l 1
 412 220 l 1
 380 220 l 1
 365 300 l 1
 285 310 l 25
 210 310 l 1
 210 350 l 1
35 650 m 1
 503 650 l 25
 510 506 l 1
 470 502 l 1
 447 595 l 1
 367 610 l 25
 210 610 l 1
 210 55 l 1
 290 40 l 1
 387 40 l 1
 467 55 l 1
 492 148 l 1
 533 143 l 1
 523 0 l 25
 30 0 l 1
 30 22 l 25
 105 47 l 25
 120 127 l 1
 120 523 l 17
 105 603 l 25
 35 628 l 25
 35 650 l 1
EndSplineSet
Fore
SplineSet
35 650 m 1
 488 650 l 25
 490 506 l 1
 450 502 l 1
 432 595 l 1
 352 610 l 25
 210 610 l 1
 210 127 l 1
 225 47 l 1
 310 22 l 25
 310 0 l 25
 30 0 l 25
 30 22 l 25
 105 47 l 25
 120 127 l 1
 120 523 l 17
 105 603 l 25
 35 628 l 25
 35 650 l 1
210 340 m 1
 295 340 l 1
 375 350 l 1
 390 430 l 1
 422 430 l 1
 422 210 l 1
 390 210 l 1
 375 290 l 1
 295 300 l 25
 210 300 l 1
 210 340 l 1
EndSplineSet
Validated: 5
EndChar

StartChar: G
Encoding: 71 71 46
GlifName: G_
Width: 710
VWidth: 0
Flags: HMW
LayerCount: 2
Back
SplineSet
390 37 m 7
 442 37 473 46 519 66 c 5
 534 163 l 5
 580 158 l 5
 570 15 l 5
 520 0 453 -10 380 -10 c 7
 158 -10 50 120 50 320 c 7
 50 520 170 660 370 660 c 7
 442 660 515 650 565 635 c 5
 570 491 l 5
 525 487 l 5
 510 580 l 5
 470 598 434 613 360 613 c 7
 220 613 155 497 155 332 c 7
 155 152 230 37 390 37 c 7
EndSplineSet
Fore
SplineSet
510 178 m 17
 500 248 l 25
 430 273 l 25
 430 295 l 25
 680 295 l 25
 680 273 l 25
 610 248 l 25
 600 178 l 1
 600 28 l 1
 537 7 484 -10 390 -10 c 3
 163 -10 50 120 50 320 c 3
 50 520 170 660 370 660 c 3
 462 660 538 647 588 627 c 1
 593 486 l 1
 545 482 l 1
 530 572 l 1
 490 595 454 613 360 613 c 3
 220 613 155 497 155 332 c 3
 155 152 235 37 400 37 c 3
 451 37 484 46 510 56 c 9
 510 178 l 17
EndSplineSet
Validated: 1
EndChar

StartChar: J
Encoding: 74 74 47
GlifName: J_
Width: 300
VWidth: 0
Flags: HMW
LayerCount: 2
Fore
SplineSet
200 80 m 2
 200 -113 119 -190 36 -190 c 3
 10 -190 -20 -185 -45 -175 c 9
 -24 -77 l 17
 12 -88 53 -97 79 -97 c 3
 104 -97 127 -84 127 -50 c 3
 127 -20 110 63 110 110 c 2
 110 523 l 1
 95 603 l 25
 20 628 l 25
 20 650 l 25
 280 650 l 25
 280 628 l 25
 215 603 l 25
 200 523 l 1
 200 80 l 2
EndSplineSet
Validated: 1
EndChar

StartChar: K
Encoding: 75 75 48
GlifName: K_
Width: 670
VWidth: 0
Flags: HMW
LayerCount: 2
Back
SplineSet
474 149 m 1
 540 124 l 25
 540 104 l 1
 385 104 l 25
 311 209 l 1
 225 319 l 25
 333 449 l 1
 360 504 l 25
 315 534 l 25
 315 554 l 25
 510 554 l 25
 510 534 l 25
 452 504 l 25
 386 449 l 1
 303 350 l 17
 474 149 l 1
120 523 m 17
 105 603 l 25
 35 628 l 25
 35 650 l 25
 295 650 l 25
 295 628 l 25
 225 603 l 25
 210 523 l 17
 210 127 l 1
 225 47 l 25
 300 22 l 25
 300 0 l 25
 30 0 l 25
 30 22 l 25
 105 47 l 25
 120 127 l 1
 120 523 l 17
EndSplineSet
Fore
SplineSet
559 45 m 5
 630 22 l 29
 630 0 l 5
 450 0 l 29
 381 105 l 5
 225 320 l 5
 418 545 l 1
 455 600 l 25
 400 628 l 25
 400 650 l 25
 615 650 l 25
 615 628 l 25
 547 600 l 25
 480 545 l 1
 310 355 l 5
 480 130 l 5
 559 45 l 5
120 523 m 17
 105 603 l 25
 35 628 l 25
 35 650 l 25
 295 650 l 25
 295 628 l 25
 225 603 l 25
 210 523 l 17
 210 127 l 1
 225 47 l 25
 300 22 l 25
 300 0 l 25
 30 0 l 25
 30 22 l 25
 105 47 l 25
 120 127 l 1
 120 523 l 17
EndSplineSet
Validated: 1
EndChar

StartChar: M
Encoding: 77 77 49
GlifName: M_
Width: 870
Flags: HMW
LayerCount: 2
Back
SplineSet
442 17 m 21
 372 17 l 5
 178 550 l 5
 138 630 l 5
 78 655 l 29
 78 677 l 29
 316 677 l 29
 316 655 l 29
 256 630 l 29
 276 550 l 29
 431 113 l 5
 581 550 l 5
 594 630 l 29
 530 655 l 29
 530 677 l 29
 738 677 l 29
 738 655 l 29
 674 630 l 29
 631 550 l 5
 442 17 l 21
EndSplineSet
Fore
SplineSet
35 650 m 1
 261 650 l 1
 286 550 l 1
 441 117 l 1
 593 550 l 1
 618 650 l 1
 835 650 l 9
 835 628 l 1
 765 603 l 25
 750 523 l 17
 750 127 l 1
 765 47 l 25
 840 22 l 25
 840 0 l 25
 580 0 l 25
 580 22 l 25
 645 47 l 1
 660 127 l 1
 660 596 l 1
 487 110 l 1
 451 0 l 1
 386 0 l 1
 349 110 l 1
 170 585 l 1
 170 127 l 1
 185 47 l 1
 250 22 l 1
 250 0 l 17
 30 0 l 1
 30 22 l 1
 105 47 l 25
 120 127 l 1
 120 523 l 17
 105 603 l 25
 35 628 l 1
 35 650 l 1
EndSplineSet
Validated: 1
EndChar

StartChar: N
Encoding: 78 78 50
GlifName: N_
Width: 680
Flags: HMW
LayerCount: 2
Fore
SplineSet
575 0 m 1
 485 0 l 1
 435 100 l 1
 165 560 l 1
 170 450 l 1
 170 127 l 1
 185 47 l 1
 260 22 l 1
 260 0 l 17
 30 0 l 1
 30 22 l 1
 105 47 l 25
 120 127 l 1
 120 523 l 17
 105 603 l 25
 35 628 l 1
 35 650 l 1
 235 650 l 1
 285 550 l 1
 525 140 l 1
 520 250 l 1
 520 523 l 1
 505 603 l 1
 430 628 l 1
 430 650 l 17
 660 650 l 1
 660 628 l 1
 585 603 l 25
 570 523 l 1
 570 120 l 1
 575 0 l 1
EndSplineSet
Validated: 1
EndChar

StartChar: P
Encoding: 80 80 51
GlifName: P_
Width: 565
VWidth: 0
Flags: HMW
LayerCount: 2
Fore
SplineSet
285 270 m 2
 210 270 l 1
 210 315 l 1
 270 310 l 17
 364 310 420 370 420 470 c 3
 420 560 377 610 270 610 c 2
 210 610 l 1
 210 127 l 1
 225 47 l 1
 310 22 l 25
 310 0 l 25
 30 0 l 25
 30 22 l 25
 105 47 l 25
 120 127 l 1
 120 523 l 17
 105 603 l 25
 35 628 l 25
 35 650 l 1
 300 650 l 2
 450 650 520 580 520 470 c 3
 520 370 430 270 285 270 c 2
EndSplineSet
Validated: 5
EndChar

StartChar: R
Encoding: 82 82 52
GlifName: R_
Width: 610
VWidth: 0
Flags: HMW
LayerCount: 2
Back
SplineSet
380 330 m 1
 478 130 l 1
 529 45 l 1
 590 22 l 25
 590 0 l 1
 430 0 l 25
 389 105 l 1
 295 310 l 1
 380 330 l 1
295 310 m 9
 210 310 l 1
 210 355 l 1
 270 350 l 17
 359 350 410 395 410 490 c 3
 410 570 367 610 260 610 c 2
 210 610 l 1
 210 122 l 1
 225 42 l 1
 280 22 l 25
 280 0 l 25
 30 0 l 25
 30 22 l 25
 105 47 l 25
 120 127 l 1
 120 523 l 17
 105 603 l 25
 35 628 l 25
 35 650 l 1
 295 650 l 2
 445 650 510 590 510 490 c 3
 510 405 436 346 380 330 c 1
 295 310 l 9
EndSplineSet
Fore
SplineSet
393 105 m 1
 230 335 l 1
 359 335 410 400 410 490 c 3
 410 570 367 610 260 610 c 2
 210 610 l 1
 210 122 l 1
 225 42 l 1
 280 22 l 25
 280 0 l 25
 30 0 l 25
 30 22 l 25
 105 47 l 25
 120 127 l 1
 120 523 l 17
 105 603 l 25
 35 628 l 25
 35 650 l 1
 295 650 l 2
 445 650 510 595 510 495 c 3
 510 410 430 340 340 325 c 1
 488 130 l 1
 564 45 l 1
 615 22 l 25
 615 0 l 1
 464 0 l 25
 393 105 l 1
EndSplineSet
Validated: 1
EndChar

StartChar: S
Encoding: 83 83 53
GlifName: S_
Width: 520
VWidth: 0
Flags: HMW
LayerCount: 2
Back
SplineSet
384 140 m 7
 384 204 337 228 231 262 c 4
 126 296 50 366 50 475 c 7
 50 585 128 660 277 660 c 7
 400 660 447 630 471 610 c 5
 471 459 l 5
 405 455 l 5
 385 559 l 5
 357 584 335 600 266 600 c 7
 198 600 156 567 156 510 c 7
 156 455 219 411 318 380 c 4
 428 345 495 285 495 193 c 7
 495 51 415 -10 241 -10 c 7
 156 -10 99 13 52 40 c 5
 50 198 l 5
 116 203 l 5
 139 98 l 5
 173 70 214 54 266 54 c 7
 335 54 384 78 384 140 c 7
276 95 m 3
 276 140 243 158 168 182 c 0
 94 206 40 252 40 329 c 3
 40 407 96 460 201 460 c 3
 288 460 321 439 338 425 c 1
 338 318 l 1
 291 315 l 1
 277 389 l 1
 257 407 242 418 193 418 c 3
 145 418 115 394 115 354 c 3
 115 315 160 288 230 266 c 0
 308 241 355 197 355 132 c 3
 355 32 298 -11 175 -11 c 3
 115 -11 75 5 42 24 c 1
 40 136 l 1
 87 139 l 1
 103 65 l 1
 127 45 156 34 193 34 c 3
 242 34 276 51 276 95 c 3
EndSplineSet
Fore
SplineSet
235 -10 m 7
 165 -10 105 5 55 35 c 5
 50 177 l 5
 95 180 l 5
 110 85 l 5
 150 55 185 37 255 37 c 7
 335 37 385 75 385 145 c 7
 385 220 331 251 225 285 c 4
 120 319 50 370 50 480 c 7
 50 580 115 660 260 660 c 7
 330 660 400 650 450 625 c 5
 455 485 l 5
 410 482 l 5
 395 575 l 5
 355 600 325 613 255 613 c 7
 175 613 130 570 130 510 c 7
 130 440 190 405 290 375 c 4
 401 342 470 290 470 185 c 7
 470 55 395 -10 235 -10 c 7
EndSplineSet
Validated: 1
EndChar

StartChar: T
Encoding: 84 84 54
GlifName: T_
Width: 560
VWidth: 0
Flags: HMW
LayerCount: 2
Fore
SplineSet
22 650 m 1
 538 650 l 1
 540 506 l 1
 500 502 l 1
 482 595 l 1
 402 610 l 25
 325 610 l 1
 325 127 l 1
 340 47 l 1
 425 22 l 25
 425 0 l 25
 135 0 l 25
 135 22 l 25
 220 47 l 25
 235 127 l 1
 235 610 l 1
 158 610 l 1
 78 595 l 1
 60 502 l 1
 20 506 l 1
 22 650 l 1
EndSplineSet
Validated: 1
EndChar

StartChar: X
Encoding: 88 88 55
GlifName: X_
Width: 630
VWidth: 0
Flags: HMW
LayerCount: 2
Back
SplineSet
267 560 m 29
 452 560 l 29
 452 540 l 29
 390 515 l 29
 336 455 l 13
 252 330 l 29
 216 345 l 29
 287 455 l 5
 314 515 l 29
 267 540 l 29
 267 560 l 29
160 215 m 5
 131 155 l 29
 178 130 l 29
 178 110 l 29
 -7 110 l 29
 -7 130 l 29
 55 155 l 29
 111 215 l 13
 196 340 l 29
 237 325 l 29
 160 215 l 5
211 445 m 21
 258 366 l 5
 352 225 l 5
 410 155 l 5
 465 130 l 29
 465 110 l 29
 247 110 l 29
 247 130 l 29
 287 155 l 5
 254 225 l 21
 197 317 l 5
 113 445 l 5
 55 515 l 5
 0 540 l 29
 0 560 l 29
 218 560 l 29
 218 540 l 29
 178 515 l 29
 211 445 l 21
EndSplineSet
Fore
SplineSet
395 650 m 25
 600 650 l 25
 600 628 l 25
 528 605 l 25
 474 545 l 9
 337 330 l 1
 300 345 l 1
 425 545 l 1
 452 605 l 25
 395 628 l 25
 395 650 l 25
281 340 m 1
 322 325 l 1
 177 105 l 1
 148 45 l 25
 205 22 l 25
 205 0 l 25
 0 0 l 25
 0 22 l 25
 72 45 l 25
 128 105 l 9
 281 340 l 1
15 650 m 25
 263 650 l 25
 263 628 l 25
 213 605 l 25
 246 535 l 17
 345 370 l 1
 502 115 l 1
 560 45 l 1
 625 22 l 25
 625 0 l 25
 377 0 l 25
 377 22 l 25
 427 45 l 1
 394 115 l 17
 277 310 l 1
 138 535 l 1
 80 605 l 1
 15 628 l 25
 15 650 l 25
EndSplineSet
Validated: 5
EndChar

StartChar: V
Encoding: 86 86 56
GlifName: V_
Width: 660
VWidth: 0
Flags: HMW
LayerCount: 2
Back
SplineSet
-63 650 m 1
 163 650 l 1
 188 550 l 1
 343 117 l 1
 495 550 l 1
 520 650 l 1
 737 650 l 9
 737 628 l 1
 667 603 l 25
 652 523 l 17
 652 127 l 1
 667 47 l 25
 742 22 l 25
 742 0 l 25
 482 0 l 25
 482 22 l 25
 547 47 l 1
 562 127 l 1
 562 596 l 1
 389 110 l 1
 353 0 l 1
 288 0 l 1
 251 110 l 1
 72 585 l 1
 72 127 l 1
 87 47 l 1
 152 22 l 1
 152 0 l 17
 -68 0 l 1
 -68 22 l 1
 7 47 l 25
 22 127 l 1
 22 523 l 17
 7 603 l 25
 -63 628 l 1
 -63 650 l 1
EndSplineSet
Fore
SplineSet
364 -10 m 1
 294 -10 l 1
 260 95 l 1
 100 523 l 1
 60 603 l 1
 0 628 l 25
 0 650 l 25
 238 650 l 25
 238 628 l 25
 178 603 l 25
 198 523 l 25
 353 95 l 1
 503 523 l 1
 516 603 l 25
 452 628 l 25
 452 650 l 25
 660 650 l 25
 660 628 l 25
 596 603 l 25
 553 523 l 1
 400 95 l 1
 364 -10 l 1
EndSplineSet
Validated: 1
EndChar

StartChar: Z
Encoding: 90 90 57
GlifName: Z_
Width: 580
VWidth: 0
Flags: HMW
LayerCount: 2
Fore
SplineSet
400 610 m 1
 201 610 l 1
 121 595 l 1
 105 495 l 1
 60 497 l 1
 65 650 l 17
 520 650 l 1
 520 630 l 1
 160 40 l 1
 389 40 l 1
 469 55 l 1
 490 155 l 1
 535 153 l 1
 525 0 l 17
 40 0 l 1
 40 20 l 1
 400 610 l 1
EndSplineSet
Validated: 1
EndChar

StartChar: W
Encoding: 87 87 58
GlifName: W_
Width: 1000
VWidth: 0
Flags: HMW
LayerCount: 2
Back
SplineSet
364 -10 m 5
 294 -10 l 5
 260 95 l 5
 100 523 l 5
 60 603 l 5
 0 628 l 29
 0 650 l 29
 238 650 l 29
 238 628 l 29
 178 603 l 29
 198 523 l 29
 353 95 l 5
 503 523 l 5
 516 603 l 29
 452 628 l 29
 452 650 l 29
 660 650 l 29
 660 628 l 29
 596 603 l 29
 553 523 l 5
 400 95 l 5
 364 -10 l 5
EndSplineSet
Fore
SplineSet
627 110 m 1
 500 503 l 1
 379 110 l 1
 350 -8 l 1
 270 -8 l 1
 237 110 l 1
 97 523 l 1
 60 603 l 1
 0 628 l 25
 0 650 l 25
 238 650 l 25
 238 628 l 25
 178 603 l 25
 195 523 l 1
 330 110 l 1
 454 510 l 1
 490 635 l 1
 555 635 l 1
 592 510 l 1
 725 110 l 1
 845 523 l 1
 856 603 l 25
 792 628 l 25
 792 650 l 25
 1000 650 l 25
 1000 628 l 25
 936 603 l 25
 895 523 l 1
 772 110 l 1
 740 -8 l 1
 660 -8 l 1
 627 110 l 1
EndSplineSet
Validated: 1
EndChar

StartChar: zero
Encoding: 48 48 61
GlifName: zero
Width: 520
VWidth: 0
Flags: MW
LayerCount: 2
Fore
SplineSet
250 595 m 3
 180 595 150 497 150 322 c 3
 150 132 185 35 270 35 c 3
 340 35 370 133 370 308 c 3
 370 498 335 595 250 595 c 3
265 -10 m 3
 120 -10 55 110 55 310 c 3
 55 510 130 640 255 640 c 3
 400 640 465 520 465 320 c 3
 465 120 390 -10 265 -10 c 3
EndSplineSet
Validated: 1
EndChar

StartChar: one
Encoding: 49 49 62
GlifName: one
Width: 520
VWidth: 0
Flags: MW
LayerCount: 2
Fore
SplineSet
220 500 m 25
 215 580 l 1
 90 598 l 25
 90 620 l 1
 315 640 l 1
 305 505 l 1
 305 130 l 1
 320 50 l 1
 440 22 l 25
 440 0 l 1
 70 0 l 1
 70 22 l 25
 205 50 l 1
 220 130 l 1
 220 500 l 25
EndSplineSet
Validated: 1
EndChar

StartChar: two
Encoding: 50 50 63
GlifName: two
Width: 520
Flags: MW
LayerCount: 2
Fore
SplineSet
235 640 m 3
 354 640 420 585 420 445 c 3
 420 300 246 137 155 75 c 1
 360 75 l 1
 450 90 l 1
 440 0 l 1
 60 0 l 1
 50 45 l 1
 200 147 330 280 330 435 c 3
 330 525 280 567 205 567 c 3
 142 567 101 536 72 503 c 1
 56 516 l 1
 78 567 139 640 235 640 c 3
EndSplineSet
Validated: 1
EndChar

StartChar: three
Encoding: 51 51 64
GlifName: three
Width: 520
VWidth: 0
Flags: MW
LayerCount: 2
Fore
SplineSet
200 295 m 1
 195 330 l 1
 285 350 325 390 325 460 c 3
 325 535 280 570 210 570 c 3
 145 570 112 533 82 503 c 1
 65 515 l 1
 90 565 140 640 245 640 c 3
 350 640 410 590 410 485 c 3
 410 410 345 355 295 340 c 1
 390 320 440 265 440 175 c 3
 440 35 310 -10 210 -10 c 3
 170 -10 115 -5 50 20 c 1
 80 115 l 1
 130 75 190 45 260 45 c 3
 315 45 355 80 355 140 c 3
 355 225 300 285 200 295 c 1
EndSplineSet
Validated: 1
EndChar

StartChar: four
Encoding: 52 52 65
GlifName: four
Width: 520
Flags: MW
LayerCount: 2
Fore
SplineSet
480 225 m 1
 470 160 l 1
 370 160 l 1
 370 117 l 1
 385 47 l 25
 460 22 l 25
 460 0 l 25
 195 0 l 25
 195 22 l 25
 270 47 l 1
 285 117 l 1
 285 160 l 1
 25 160 l 1
 25 180 l 1
 295 630 l 1
 370 630 l 1
 370 205 l 1
 480 225 l 1
285 535 m 1
 90 210 l 1
 285 210 l 1
 285 535 l 1
EndSplineSet
Validated: 1
EndChar

StartChar: five
Encoding: 53 53 66
GlifName: five
Width: 520
VWidth: 0
Flags: HMW
LayerCount: 2
Back
SplineSet
350 630 m 1
 430 640 l 1
 420 555 l 1
 155 555 l 1
 148 390 l 1
 398 390 450 285 450 195 c 3
 450 55 330 -10 230 -10 c 3
 190 -10 125 -5 60 20 c 1
 90 115 l 1
 145 75 210 50 275 50 c 3
 330 50 375 90 375 150 c 3
 375 235 315 315 95 325 c 1
 110 630 l 25
 350 630 l 1
EndSplineSet
Fore
SplineSet
430 640 m 1
 420 555 l 1
 155 555 l 5
 148 390 l 5
 168 392 190 393 205 393 c 7
 405 393 450 290 450 195 c 7
 450 55 330 -10 230 -10 c 7
 190 -10 125 -5 60 20 c 5
 90 115 l 5
 145 75 210 50 275 50 c 7
 330 50 375 90 375 150 c 7
 375 245 325 325 95 325 c 5
 110 630 l 29
 350 630 l 1
 430 640 l 1
EndSplineSet
Validated: 1
EndChar

StartChar: six
Encoding: 54 54 67
GlifName: six
Width: 520
Flags: HMW
LayerCount: 2
Back
SplineSet
85 15 m 1
 85 555 l 1
 70 625 l 1
 15 640 l 25
 15 660 l 1
 180 680 l 1
 170 560 l 9
 165 351 l 1
 170 316 l 1
 170 110 l 1
 180 40 l 1
 195 35 206 32 224 32 c 3
 319 32 390 77 390 220 c 3
 390 335 356 387 280 387 c 3
 234 387 191 356 170 316 c 1
 165 351 l 1
 189 406 244 460 317 460 c 3
 420 460 480 384 480 242 c 3
 480 102 372 -10 223 -10 c 3
 165 -10 123 -1 85 15 c 1
EndSplineSet
Fore
SplineSet
380 650 m 13
 390 620 l 21
 210 565 145 430 145 230 c 7
 145 100 190 35 255 35 c 7
 330 35 370 95 370 190 c 7
 370 295 336 332 260 332 c 7
 214 332 166 301 145 261 c 5
 140 291 l 5
 164 346 224 405 297 405 c 7
 400 405 460 344 460 212 c 7
 460 77 360 -10 250 -10 c 7
 140 -10 55 62 55 219 c 7
 55 437 160 615 380 650 c 13
EndSplineSet
Validated: 5
EndChar

StartChar: nine
Encoding: 57 57 68
GlifName: nine
Width: 520
Flags: HMW
LayerCount: 2
Back
SplineSet
265 595 m 7
 190 595 150 535 150 440 c 7
 150 335 184 298 260 298 c 7
 306 298 354 329 375 369 c 5
 380 339 l 5
 356 284 296 225 223 225 c 7
 120 225 60 286 60 418 c 7
 60 553 160 640 270 640 c 7
 380 640 465 568 465 411 c 7
 465 193 335 40 140 -10 c 13
 130 20 l 21
 285 80 375 200 375 400 c 7
 375 530 330 595 265 595 c 7
EndSplineSet
Fore
SplineSet
265 640 m 3
 385 640 460 558 460 401 c 3
 460 183 355 35 140 -10 c 9
 130 20 l 17
 305 80 370 190 370 390 c 3
 370 520 330 595 260 595 c 3
 185 595 150 540 150 450 c 3
 150 350 199 308 270 308 c 3
 311 308 349 329 370 374 c 1
 375 344 l 1
 351 284 301 240 233 240 c 3
 135 240 60 301 60 428 c 3
 60 558 155 640 265 640 c 3
EndSplineSet
Validated: 5
EndChar

StartChar: seven
Encoding: 55 55 69
GlifName: seven
Width: 520
VWidth: 0
Flags: MW
LayerCount: 2
Fore
SplineSet
75 630 m 1
 450 630 l 1
 455 610 l 1
 285 170 l 1
 235 -15 l 9
 135 15 l 1
 220 190 l 1
 390 555 l 9
 175 555 l 1
 65 545 l 1
 75 630 l 1
EndSplineSet
Validated: 1
EndChar

StartChar: eight
Encoding: 56 56 70
GlifName: eight
Width: 520
VWidth: 0
Flags: MW
LayerCount: 2
Fore
SplineSet
245 -10 m 7
 135 -10 65 55 65 145 c 7
 65 240 130 295 215 320 c 5
 230 295 l 5
 170 265 140 225 140 150 c 7
 140 80 200 35 260 35 c 7
 330 35 370 80 370 150 c 7
 370 220 336 256 230 295 c 4
 126 333 70 385 70 480 c 7
 70 570 140 640 260 640 c 7
 365 640 425 570 425 495 c 7
 425 420 370 360 300 340 c 5
 285 365 l 5
 335 395 350 435 350 495 c 7
 350 550 310 595 250 595 c 7
 180 595 150 550 150 495 c 7
 150 430 186 399 285 365 c 4
 396 327 455 265 455 175 c 7
 455 65 380 -10 245 -10 c 7
EndSplineSet
Validated: 5
EndChar

StartChar: quoteright
Encoding: 256 8217 71
GlifName: quoteright
Width: 240
VWidth: 0
Flags: HMW
LayerCount: 2
Fore
SplineSet
50 616 m 3
 50 651 75 680 115 680 c 3
 155 680 185 648 185 599 c 3
 185 515 134 461 76 431 c 9
 56 466 l 1
 89 482 122 508 115 560 c 1
 75 560 50 584 50 616 c 3
EndSplineSet
Validated: 33
EndChar

StartChar: endash
Encoding: 260 8211 75
GlifName: endash
Width: 500
VWidth: 0
Flags: HMW
LayerCount: 2
Fore
SplineSet
0 275 m 1
 500 275 l 1
 500 225 l 1
 0 225 l 1
 0 275 l 1
EndSplineSet
Validated: 1
Colour: ff00ff
EndChar

StartChar: emdash
Encoding: 261 8212 76
GlifName: emdash
Width: 1000
VWidth: 0
Flags: HMW
LayerCount: 2
Fore
SplineSet
0 275 m 1
 1000 275 l 1
 1000 225 l 5
 0 225 l 5
 0 275 l 1
EndSplineSet
Validated: 1
Colour: ff00ff
EndChar

StartChar: parenleft
Encoding: 40 40 77
GlifName: parenleft
Width: 325
VWidth: 0
Flags: HMW
LayerCount: 2
Fore
SplineSet
125 265 m 3
 125 85 195 -65 285 -140 c 1
 270 -160 l 1
 120 -80 40 85 40 265 c 3
 40 445 120 610 270 690 c 1
 285 670 l 1
 195 595 125 445 125 265 c 3
EndSplineSet
Validated: 1
EndChar

StartChar: plus
Encoding: 43 43 79
GlifName: plus
Width: 600
VWidth: 0
Flags: HMW
LayerCount: 2
Fore
SplineSet
50 275 m 1
 550 275 l 1
 550 225 l 1
 50 225 l 1
 50 275 l 1
275 500 m 5
 325 500 l 5
 325 0 l 5
 275 0 l 5
 275 500 l 5
EndSplineSet
Validated: 5
Colour: ff00ff
EndChar

StartChar: multiply
Encoding: 215 215 80
GlifName: multiply
Width: 600
VWidth: 0
Flags: HMW
LayerCount: 2
Fore
SplineSet
65 48 m 1
 500 487 l 1
 535 452 l 1
 100 13 l 1
 65 48 l 1
65 452 m 1
 100 487 l 1
 535 48 l 1
 500 13 l 1
 65 452 l 1
EndSplineSet
Validated: 5
Colour: ff00ff
EndChar

StartChar: less
Encoding: 60 60 81
GlifName: less
Width: 475
VWidth: 0
Flags: HMW
LayerCount: 2
Fore
SplineSet
100 250 m 5
 340 490 l 5
 375 455 l 5
 170 250 l 5
 375 45 l 5
 340 10 l 5
 100 250 l 5
EndSplineSet
Validated: 1
Colour: ff00ff
EndChar

StartChar: minus
Encoding: 262 8722 83
GlifName: minus
Width: 600
VWidth: 0
Flags: HMW
LayerCount: 2
Fore
SplineSet
50 275 m 5
 550 275 l 5
 550 225 l 5
 50 225 l 5
 50 275 l 5
EndSplineSet
Validated: 1
Colour: ff00ff
EndChar

StartChar: divide
Encoding: 247 247 84
GlifName: divide
Width: 600
VWidth: 0
Flags: HMW
LayerCount: 2
Fore
SplineSet
245 85 m 3
 245 117 268 140 300 140 c 3
 332 140 355 117 355 85 c 3
 355 53 332 30 300 30 c 3
 268 30 245 53 245 85 c 3
245 415 m 3
 245 447 268 470 300 470 c 3
 332 470 355 447 355 415 c 3
 355 383 332 360 300 360 c 3
 268 360 245 383 245 415 c 3
50 275 m 1
 550 275 l 1
 550 225 l 1
 50 225 l 1
 50 275 l 1
EndSplineSet
Validated: 1
Colour: ff00ff
EndChar

StartChar: equal
Encoding: 61 61 85
GlifName: equal
Width: 540
VWidth: 0
Flags: HMW
LayerCount: 2
Fore
SplineSet
50 370 m 5
 490 370 l 5
 490 320 l 5
 50 320 l 5
 50 370 l 5
50 180 m 5
 490 180 l 5
 490 130 l 5
 50 130 l 5
 50 180 l 5
EndSplineSet
Validated: 1
EndChar

StartChar: question
Encoding: 63 63 86
GlifName: question
Width: 460
Flags: HMW
LayerCount: 2
Back
SplineSet
130 295 m 5
 220 335 290 365 290 465 c 7
 290 550 240 587 165 587 c 7
 102 587 61 556 32 523 c 5
 16 536 l 5
 38 587 99 660 195 660 c 7
 314 660 380 605 380 470 c 7
 380 325 255 290 205 270 c 5
 215 200 l 5
 170 190 l 5
 130 295 l 5
EndSplineSet
Fore
SplineSet
200 660 m 7
 330 660 400 580 400 460 c 3
 400 360 315 300 200 260 c 1
 200 205 l 1
 175 200 l 25
 135 340 l 1
 250 365 345 400 345 475 c 3
 345 535 295 570 230 570 c 3
 175 570 145 565 90 545 c 1
 60 640 l 1
 125 655 160 660 200 660 c 7
EndSplineSet
Refer: 29 46 N 1 0 0 1 60 0 2
Validated: 1
EndChar

StartChar: dollar
Encoding: 36 36 87
GlifName: dollar
Width: 520
VWidth: 0
Flags: MW
LayerCount: 2
Fore
SplineSet
210 770 m 5
 290 770 l 5
 275 630 l 5
 225 630 l 5
 210 770 l 5
220 0 m 1
 270 0 l 1
 285 -140 l 1
 205 -140 l 1
 220 0 l 1
235 -10 m 3
 165 -10 105 5 55 35 c 1
 50 177 l 1
 95 180 l 1
 110 85 l 1
 150 55 185 37 255 37 c 3
 335 37 385 70 385 140 c 3
 385 215 331 241 225 275 c 0
 120 309 50 355 50 465 c 3
 50 565 115 640 260 640 c 3
 330 640 400 630 450 605 c 1
 455 465 l 1
 410 462 l 1
 395 555 l 1
 355 580 325 593 255 593 c 3
 175 593 130 555 130 495 c 3
 130 425 190 395 290 365 c 0
 401 332 470 285 470 180 c 3
 470 50 395 -10 235 -10 c 3
EndSplineSet
Validated: 5
EndChar

StartChar: bar
Encoding: 124 124 88
GlifName: bar
Width: 250
VWidth: 0
Flags: MW
LayerCount: 2
Fore
SplineSet
100 790 m 5
 150 790 l 5
 150 -210 l 5
 100 -210 l 5
 100 790 l 5
EndSplineSet
Validated: 1
Colour: ff00ff
EndChar

StartChar: slash
Encoding: 47 47 89
GlifName: slash
Width: 330
VWidth: 0
Flags: HMW
LayerCount: 2
Fore
SplineSet
264 678 m 1
 310 661 l 1
 66 -28 l 1
 20 -11 l 1
 264 678 l 1
EndSplineSet
Validated: 1
Colour: ff00ff
EndChar

StartChar: numbersign
Encoding: 35 35 90
GlifName: numbersign
Width: 520
VWidth: 0
Flags: HMW
LayerCount: 2
Fore
SplineSet
45 450 m 1
 510 450 l 1
 510 400 l 1
 45 400 l 1
 45 450 l 1
10 230 m 1
 475 230 l 1
 475 180 l 1
 10 180 l 1
 10 230 l 1
386 639 m 1
 435 631 l 1
 322 -9 l 1
 273 -1 l 1
 386 639 l 1
198 639 m 1
 247 631 l 1
 134 -9 l 1
 85 -1 l 1
 198 639 l 1
EndSplineSet
Validated: 5
Colour: ff00ff
EndChar

StartChar: percent
Encoding: 37 37 91
GlifName: percent
Width: 900
VWidth: 0
Flags: HMW
LayerCount: 2
Fore
SplineSet
215 595 m 7
 155 595 120 545 120 460 c 7
 120 370 155 315 220 315 c 7
 280 315 315 365 315 450 c 7
 315 540 280 595 215 595 c 7
220 270 m 7
 110 270 50 340 50 450 c 7
 50 560 115 640 215 640 c 7
 325 640 385 570 385 460 c 7
 385 350 320 270 220 270 c 7
680 315 m 3
 620 315 585 265 585 180 c 3
 585 90 620 35 685 35 c 3
 745 35 780 85 780 170 c 3
 780 260 745 315 680 315 c 3
685 -10 m 3
 575 -10 515 60 515 170 c 3
 515 280 580 360 680 360 c 3
 790 360 850 290 850 180 c 3
 850 70 785 -10 685 -10 c 3
553 640 m 1
 600 621 l 1
 347 -10 l 1
 300 9 l 1
 553 640 l 1
EndSplineSet
Validated: 1
Colour: ff00ff
EndChar

StartChar: ampersand
Encoding: 38 38 92
GlifName: ampersand
Width: 650
VWidth: 0
Flags: HMW
LayerCount: 2
Fore
SplineSet
275 375 m 1
 470 125 l 1
 549 45 l 1
 620 22 l 25
 620 0 l 1
 440 0 l 25
 370 105 l 1
 195 340 l 1
 150 400 120 445 120 515 c 3
 120 580 175 640 285 640 c 3
 390 640 430 580 430 505 c 3
 430 430 360 375 290 350 c 1
 275 375 l 1
 325 410 355 445 355 505 c 3
 355 555 325 595 275 595 c 3
 225 595 200 570 200 530 c 3
 200 480 220 455 275 375 c 1
400 65 m 17
 370 25 315 -10 230 -10 c 3
 130 -10 50 45 50 150 c 3
 50 245 110 310 195 340 c 1
 215 315 l 1
 160 280 140 235 140 185 c 3
 140 115 180 60 260 60 c 3
 315 60 345 75 370 105 c 9
 458 245 l 1
 480 300 l 25
 435 328 l 25
 435 350 l 25
 620 350 l 25
 620 328 l 25
 552 300 l 25
 511 245 l 1
 400 65 l 17
EndSplineSet
Validated: 5
EndChar

StartChar: asterisk
Encoding: 42 42 93
GlifName: asterisk
Width: 520
VWidth: 0
Flags: HMW
LayerCount: 2
Back
SplineSet
326 679 m 5
 404 634 l 5
 292 491 l 5
 258 511 l 5
 326 679 l 5
116 634 m 5
 194 679 l 5
 262 511 l 5
 228 491 l 5
 116 634 l 5
50 430 m 5
 50 520 l 5
 230 495 l 5
 230 455 l 5
 50 430 l 5
194 271 m 5
 116 316 l 5
 228 459 l 5
 262 439 l 5
 194 271 l 5
404 316 m 5
 326 271 l 5
 258 439 l 5
 292 459 l 5
 404 316 l 5
470 520 m 5
 470 430 l 5
 290 455 l 5
 290 495 l 5
 470 520 l 5
EndSplineSet
Fore
SplineSet
470 520 m 1
 470 430 l 1
 296 454 l 1
 404 316 l 1
 326 271 l 1
 260 434 l 1
 194 271 l 1
 116 316 l 1
 224 454 l 1
 50 430 l 1
 50 520 l 1
 224 496 l 1
 116 634 l 1
 194 679 l 1
 260 516 l 1
 326 679 l 1
 404 634 l 1
 296 496 l 1
 470 520 l 1
EndSplineSet
Validated: 1
EndChar

StartChar: bracketleft
Encoding: 91 91 94
GlifName: bracketleft
Width: 325
VWidth: 0
Flags: HMW
LayerCount: 2
Fore
SplineSet
90 -145 m 25
 100 -45 l 1
 100 580 l 1
 90 680 l 25
 285 680 l 1
 285 655 l 25
 190 633 l 25
 175 573 l 17
 175 -18 l 1
 190 -98 l 25
 285 -120 l 25
 285 -145 l 1
 90 -145 l 25
EndSplineSet
Validated: 1
EndChar

StartChar: backslash
Encoding: 92 92 95
GlifName: backslash
Width: 330
VWidth: 0
Flags: HMW
LayerCount: 2
Fore
SplineSet
66 678 m 1
 310 -11 l 1
 264 -28 l 1
 20 661 l 1
 66 678 l 1
EndSplineSet
Validated: 1
Colour: ff00ff
EndChar

StartChar: acircumflex
Encoding: 226 226 97
GlifName: acircumflex
Width: 460
VWidth: 0
Flags: MW
LayerCount: 2
Back
SplineSet
230 680 m 5
 470 440 l 5
 434 406 l 5
 230 610 l 5
 24 406 l 5
 -10 440 l 5
 230 680 l 5
EndSplineSet
Fore
SplineSet
225 680 m 1
 385 540 l 1
 360 510 l 1
 225 600 l 1
 90 510 l 1
 65 540 l 1
 225 680 l 1
EndSplineSet
Refer: 10 97 N 1 0 0 1 0 0 2
Validated: 5
EndChar

StartChar: asciicircum
Encoding: 94 94 98
GlifName: asciicircum
Width: 520
VWidth: 0
Flags: MW
LayerCount: 2
Fore
SplineSet
260 680 m 1
 440 510 l 1
 415 480 l 1
 260 590 l 1
 105 480 l 1
 80 510 l 1
 260 680 l 1
EndSplineSet
Validated: 1
EndChar

StartChar: underscore
Encoding: 95 95 99
GlifName: underscore
Width: 500
VWidth: 0
Flags: MW
LayerCount: 2
Fore
SplineSet
0 0 m 1
 500 0 l 1
 500 -50 l 1
 0 -50 l 1
 0 0 l 1
EndSplineSet
Validated: 1
Colour: ff00ff
EndChar

StartChar: egrave
Encoding: 232 232 100
GlifName: egrave
Width: 451
VWidth: 0
Flags: HMW
LayerCount: 2
Fore
SplineSet
130 680 m 1
 355 550 l 1
 340 515 l 1
 100 610 l 1
 130 680 l 1
EndSplineSet
Refer: 1 101 N 1 0 0 1 0 0 2
Validated: 5
EndChar

StartChar: grave
Encoding: 96 96 101
GlifName: grave
Width: 455
VWidth: 0
Flags: HMW
LayerCount: 2
Fore
SplineSet
130 680 m 1
 355 550 l 1
 340 515 l 1
 100 610 l 1
 130 680 l 1
EndSplineSet
Validated: 1
EndChar

StartChar: braceleft
Encoding: 123 123 102
GlifName: braceleft
Width: 325
VWidth: 0
Flags: HMW
LayerCount: 2
Fore
SplineSet
50 250 m 9
 50 280 l 17
 110 290 127.082758621 315.006896552 120 400 c 10
 110 520 l 18
 99.4275862069 646.868965517 145 690 275 690 c 1
 275 665 l 1
 205 655 180.133873238 628.661267623 190 530 c 2
 200 430 l 18
 211.3450263 316.549737005 160 280 115 265 c 1
 160 250 211.344726562 213.450195312 200 100 c 10
 190 0 l 2
 180.133789062 -98.6611328125 205 -125 275 -135 c 1
 275 -160 l 1
 145 -160 99.427734375 -116.869140625 110 10 c 10
 120 130 l 18
 127.083007812 214.993164062 110 240 50 250 c 9
EndSplineSet
Validated: 33
EndChar

StartChar: degree
Encoding: 176 176 104
GlifName: degree
Width: 430
VWidth: 0
Flags: HMW
LayerCount: 2
Fore
SplineSet
215 635 m 3
 155 635 115 595 115 520 c 3
 115 440 155 395 215 395 c 3
 275 395 315 435 315 510 c 3
 315 590 275 635 215 635 c 3
215 350 m 3
 110 350 50 415 50 515 c 3
 50 610 115 680 215 680 c 3
 320 680 380 615 380 515 c 3
 380 420 315 350 215 350 c 3
EndSplineSet
Validated: 1
EndChar
